<svg stroke="#000" width="162" height="162" viewBox="143 143 514 514" xmlns="http://www.w3.org/2000/svg" stroke-width="0"><path xmlns="http://www.w3.org/2000/svg" d="M400 218.63c-100.26 0-181.37 81.11-181.37 181.37S299.74 581.37 400 581.37 581.37 500.26 581.37 400 500.26 218.63 400 218.63zm85.64 241.83H314.37v-20.15h171.3zm0-50.38H314.37v-20.15h171.3zm0-50.38H314.37v-20.15h171.3z" stroke-linecap="round" stroke-linejoin="round" stroke="#CCC" stroke-width="110"/><path xmlns="http://www.w3.org/2000/svg" d="M400 218.63c-100.26 0-181.37 81.11-181.37 181.37S299.74 581.37 400 581.37 581.37 500.26 581.37 400 500.26 218.63 400 218.63zm85.64 241.83H314.37v-20.15h171.3zm0-50.38H314.37v-20.15h171.3zm0-50.38H314.37v-20.15h171.3z" stroke="none"/></svg>